<svg xmlns="http://www.w3.org/2000/svg" fill="none" viewBox="0 0 500 447"><circle cx="456.5" cy="276.5" r="39.5" fill="#fff"/><circle cx="173.5" cy="350.5" r="96.5" fill="#83e2e8"/><ellipse cx="103.5" cy="101" rx="47.5" ry="47" fill="#ff0049"/><g stroke="#352663" stroke-width="2" stroke-miterlimit="10"><g stroke-linecap="round"><path d="M278.448 323.086h-53.014M92.065 252.221V98.264c0-5.002 4.025-9.17 9.16-9.17h336.267M128.148 323.087h-26.091c-4.996 0-9.16-4.03-9.16-9.171"/><path d="M93.314 118.412h335.434a9.66 9.66 0 019.715 9.727v51.411m-326.968-70.587a4.027 4.027 0 100-8.059 4.027 4.027 0 100 8.059zm19.845 0a4.027 4.027 0 100-8.059 4.027 4.027 0 100 8.059zm19.569 0a4.027 4.027 0 100-8.059 4.027 4.027 0 100 8.059zm34.695 194.254c3.469-1.39 7.355-.973 11.935-.139 9.159 1.528 11.657 6.809 13.045 15.562 1.666 10.561 16.099 8.476 17.625-.555m-41.356-14.314c6.8.973 12.351 4.447 13.323 9.449"/></g><path d="M160.762 148.287c-27.34 0-48.435 20.009-48.435 47.104 0 14.173 5.829 26.401 15.266 34.877.833.694 1.249 1.667 1.249 2.779l.278 8.615c.139 2.779 2.914 4.585 5.412 3.473l9.576-4.307c.833-.417 1.665-.417 2.637-.139 4.441 1.25 9.159 1.806 14.017 1.806 27.34 0 48.434-20.009 48.434-47.104s-21.094-47.104-48.434-47.104z"/><g stroke-linecap="round"><path d="M230.014 157.736h51.904m-51.904 33.625h51.904m-51.904 18.203h51.904m-51.904-35.71h35.25m-35.25 69.615h51.904m-51.904-17.508h35.25M51.819 268.478c-19.152 0-35.528-14.868-36.222-34.043-.694-20.148 15.405-36.683 35.25-36.683 11.242 0 20.123-9.726 18.874-20.981l-.694-6.948-.693-.278c-2.776-1.25-5.552-2.779-8.327-4.585l-.694-.417-21.511 7.781c-3.192 1.112-6.8.278-9.16-2.084-4.024-4.168-7.633-8.754-10.963-13.617-1.943-2.779-1.943-6.531-.14-9.449l12.075-19.73-.278-.695c-1.11-2.918-1.943-5.975-2.637-9.032l-.139-.695-20.54-10.004c-3.191-1.528-5.273-4.863-4.995-8.476.277-4.724.832-11.255 1.665-16.674.555-3.613 3.192-6.392 6.662-7.225l22.205-5.28.277-.695c1.25-2.78 2.776-5.558 4.58-8.337l.416-.695-7.633-21.815c-1.11-3.196-.277-6.809 2.082-9.17 4.164-4.03 8.743-7.643 13.6-10.978 2.776-1.945 6.523-1.945 9.438-.139l19.707 12.089.694-.278c2.914-1.112 5.967-1.945 9.02-2.64l.694-.14L94.286 6.14c1.526-3.196 4.857-5.28 8.465-5.002 4.719.278 11.242.834 16.654 1.667 3.608.556 6.384 3.196 7.217 6.67l5.273 22.232.694.278c2.776 1.25 5.552 2.779 8.327 4.585l.694.417 21.789-7.642c3.192-1.112 6.8-.278 9.159 2.084 4.025 4.169 7.633 8.754 10.964 13.617 1.943 2.78 1.943 6.53.139 9.449l-10.409 17.09m78.273 285.96c0 25.15-20.401 45.436-45.382 45.436s-45.381-20.425-45.381-45.436v4.585c-1.527-14.729 11.241-20.564 11.241-20.564 14.295 4.724 36.083.555 39.136-16.535 2.082-11.533-15.543-16.536-17.625-4.864-.694 3.891-3.886 4.447-7.633 4.586-2.081.139-7.078.555-8.327-1.251-3.33-4.585 5.69-16.952 8.05-20.426 4.024-6.252 9.576-6.252 16.653-5.697 9.299.834 11.797 5.558 13.879 14.034 2.775 11.533 20.539 6.67 17.625-4.863-1.804-7.503-4.302-14.867-10.27-20.148-6.245-5.419-14.433-7.086-22.344-7.503l-16.654.417c-14.849.695-38.442 9.449-64.533 58.637-5.135 9.587-10.825 19.314-18.041 27.373-6.8 7.642-13.462 10.421-24.148 10.004-18.042-.694-31.226-18.897-31.226-35.71 0-20.286 16.376-36.683 36.638-36.683H96.09c9.437 0 17.625-7.364 17.764-16.812.139-9.588-7.633-17.508-17.209-17.508H71.387m318.919 7.503H328.41l-9.854-13.339c-1.388-1.945-4.302-1.945-5.69 0l-10.27 13.478h-15.127c-4.302 0-7.633 3.474-7.633 7.643v78.229a7.616 7.616 0 007.633 7.642h102.698c4.302 0 7.633-3.474 7.633-7.642v-78.368c.139-4.169-3.331-7.643-7.494-7.643zm-328.496-.416a7.64 7.64 0 00.001-15.284 7.64 7.64 0 100 15.284z"/><path d="M250.97 357.269a7.64 7.64 0 100-15.285 7.64 7.64 0 100 15.285zM233.483 70.475c6.662-14.173 20.956-24.177 37.749-24.177 4.718 0 9.159.833 13.323 2.223 5.412-16.674 21.094-28.763 39.552-28.763 6.8 0 13.046 1.668 18.736 4.447C353.112 10.17 369.627 1 388.363 1c26.785 0 48.99 18.62 54.957 43.491 5.968-1.945 12.629-2.779 19.568-1.667 18.736 2.918 33.308 18.48 34.973 37.377 2.082 24.595-17.209 45.298-41.357 45.298v56.97c0 9.309-7.633 16.952-16.931 16.952"/><path d="M284.693 49.633c3.748 2.084 7.495 4.724 9.021 8.615s-.277 9.448-4.302 10.282c-4.163.973-8.049-3.474-8.327-7.781s1.804-8.337 3.886-12.089m157.794-3.891c.833 4.307 1.388 9.032-.694 12.783-2.082 3.891-7.494 6.114-10.964 3.474-3.608-2.64-2.775-8.615.417-11.81s7.772-4.17 12.074-5.142m-104.225-21.26c3.192 1.807 6.245 2.918 9.021 5.28 2.359 2.085 4.58 4.586 5.69 7.504s.971 6.53-1.11 9.032c-4.025 4.863-10.825.833-11.936-4.308-.971-4.863.278-11.533 1.805-16.118m128.372 113.939v55.163c0 18.063-14.155 23.76-23.592 25.705-4.719.973-8.188 5.142-8.188 10.005v85.176c0 5.002-4.025 9.171-9.16 9.171h-32.197m67.309-181.468l5.828-5.975 6.523 5.28m-34.556 64.196l-5.829-5.836 5.135-6.531M302.457 298.215h76.052m-76.052 33.764h76.052m-76.052-17.508h53.57m-53.57 33.627h53.57M139.112 176.355h44.965m-44.965 33.764h44.132m-44.132-17.508h35.25m186.383 54.747c26.214 0 47.464-21.276 47.464-47.521s-21.25-47.521-47.464-47.521-47.463 21.276-47.463 47.521 21.25 47.521 47.463 47.521z"/><path d="M352.141 219.846c4.58.694 5.274 7.086 4.025 10.004l-.416 1.112c-.833 2.084-2.776 3.612-4.997 3.89l-15.821 4.447m33.169-52.662c0 2.501 1.943 4.446 4.441 4.446s4.441-1.945 4.441-4.446m8.465 22.926s-10.686 3.613-16.237-6.114m11.935-25.983s-3.192.834-17.764 3.196c0 0-11.38 12.644-4.302 39.045h-26.646s-9.437-37.1 17.625-50.578c17.071-8.615 29.283 2.64 31.087 8.337zm0 0c5.274 17.369 12.074 12.922 13.601 18.342 1.527 5.558-6.384 3.056-7.772 5.696-1.249 2.641-.416 9.588-.139 15.98.139 6.391-3.608 10.977-10.686 10.977-6.939 0-8.604-1.112-8.465 17.23"/></g></g></svg>